<svg xmlns="http://www.w3.org/2000/svg" viewBox="0 0 689.37 171.47"><defs><style>.cls-1,.cls-4{fill:#e2000f;}.cls-1,.cls-2{fill-rule:evenodd;}.cls-2,.cls-3{fill:#0a295d;}</style></defs><title>Asset 2</title><g id="Layer_2" data-name="Layer 2"><g id="Layer_1-2" data-name="Layer 1"><polygon class="cls-1" points="475.34 55.76 514.66 55.75 514.66 31.81 451 31.81 451 112.38 514.72 112.38 514.63 88.51 475.24 88.47 475.38 81.91 514.66 81.9 514.62 62.33 475.27 62.28 475.34 55.76"/><path class="cls-2" d="M287.86,63.89h10.37a6.25,6.25,0,0,0,0-12.5H287.86Zm0,28.94h15.39a7.1,7.1,0,1,0,0-14.21H287.86Zm-22.54,19.55h32.17c10.21,0,20.07-.11,26.64-5.25,5.26-4.11,10.8-12.92,8.28-23.19-2.29-9.33-7.79-12.38-16.06-15.69,6.81-3.44,10.6-9.14,10.38-17s-5.87-13.42-11-16.05c-7.29-3.77-14.28-3.44-23.57-3.44H265.32Q265.32,72.09,265.32,112.38Z"/><polygon class="cls-1" points="569.75 92.26 584.54 112.38 613.32 112.38 584.4 72.07 613.29 31.82 584.58 31.81 569.75 51.87 554.92 31.81 526.2 31.81 555.74 72.07 526.18 112.38 554.95 112.38 569.75 92.26"/><polygon class="cls-2" points="389.22 112.38 435.06 112.41 436.7 112.25 436.61 88.08 413.44 88.06 413.44 31.81 389.21 31.81 389.19 33.63 389.22 112.38"/><polygon class="cls-2" points="345.56 112.37 369.87 112.38 369.84 31.96 345.56 31.95 345.56 112.37"/><path class="cls-3" d="M213.85,114h0a40.79,40.79,0,0,1-40.79-40.79,38,38,0,0,1,2.61-14.29,56.64,56.64,0,0,1,6.1-11l22.33-33.3L213.85,0l9.75,14.54,22.33,33.3a56.64,56.64,0,0,1,6.1,11,38,38,0,0,1,2.61,14.29A40.79,40.79,0,0,1,213.85,114Zm0-71.83L201.27,60.89a35.63,35.63,0,0,0-3.71,6.54,15.3,15.3,0,0,0-1,5.73,17.24,17.24,0,0,0,17.25,17.25h0A17.24,17.24,0,0,0,231.1,73.16a15.29,15.29,0,0,0-1-5.73,35.62,35.62,0,0,0-3.71-6.54L213.85,42.13h0Z"/><polygon class="cls-2" points="119.78 109.44 138.82 79.67 138.85 112.37 163.02 112.37 162.94 31.81 143.78 31.81 119.78 69.21 95.82 31.81 76.62 31.81 76.54 112.37 100.71 112.37 100.74 79.67 119.78 109.44"/><path class="cls-3" d="M336.36,156.89,347.5,139v-1.27h-9.16l-6,11H332l-6-11h-9.11V139L328,156.89v13.88h8.35Zm-53.86-2.64c0,11.28,8.54,16.9,16.95,16.9,6.09,0,12.37-2.64,14.73-9.53a24,24,0,0,0,.94-9.68H299.49v7.32h7c-1.51,3.16-3.68,4.06-7.08,4.06-5,0-8.21-3.59-8.21-9.06,0-5.05,2.88-9.2,8.21-9.2,3.35,0,5.52,1.13,6.89,4h8.31c-1.6-8.21-8.54-11.66-15.2-11.71C291,137.3,282.55,143,282.5,154.25ZM266,153.54h-6v-8.26c2,0,4.06,0,6,0C270.8,145.33,270.56,153.54,266,153.54Zm7,5.52c8.35-5.66,6-21.29-7-21.34H251.49v33h8.45V161h4.39l5.66,9.72h9.44v-1.23Zm-29.12-21.34H223.22v33h21.05v-7.51H231.62v-5.81h11.23V150H231.62v-4.67h12.23Zm-32.05,33h3v-33h-8.64v16.17l-16.71-16.31H186.4v33.18h8.73V154.53Zm-33.09-33H158.08v33h21.05v-7.51H166.48v-5.81h11.23V150H166.48v-4.67H178.7Zm343.45,17h-6v-9.44c1.94,0,4.06,0,6,0C527.06,145.33,526.78,154.72,522.15,154.72Zm-6,16v-8.45h6.09c15.81,0,15.81-24.55,0-24.59H507.66v33Zm-29.74-7.13c-2.45,0-5.05-1.32-5.05-4v-21.9h-8.07v22c0,7.27,6.37,11.47,13.12,11.47s13.08-4.2,13.08-11.47v-22h-8.07v21.9C491.37,162.32,488.82,163.64,486.37,163.64ZM442,154.3c0-11.9,16.57-11.9,16.57,0S442,166.28,442,154.3Zm25.21,0c0-22.85-33.89-22.85-33.89,0S467.21,177.19,467.21,154.3Zm-50.41-.76h-6v-8.26c2,0,4.06,0,6,0C421.61,145.33,421.37,153.54,416.79,153.54Zm7,5.52c8.35-5.66,6-21.29-7-21.34H402.3v33h8.45V161h4.39l5.66,9.72h9.44v-1.23ZM363,154.25c0,11.28,8.54,16.9,16.95,16.9,6.09,0,12.37-2.64,14.73-9.53a24,24,0,0,0,.94-9.68H380v7.32h7c-1.51,3.16-3.68,4.06-7.08,4.06-5,0-8.21-3.59-8.21-9.06,0-5.05,2.88-9.2,8.21-9.2,3.35,0,5.52,1.13,6.89,4h8.31c-1.6-8.21-8.54-11.66-15.2-11.71C371.57,137.3,363.08,143,363,154.25Z"/><polygon class="cls-4" points="29.56 112.37 0 72.07 29.56 31.77 58.53 31.77 28.97 72.07 58.53 112.37 29.56 112.37"/><polygon class="cls-3" points="659.81 112.37 689.37 72.07 659.81 31.77 630.84 31.77 660.4 72.07 630.84 112.37 659.81 112.37"/></g></g></svg>