<svg xmlns="http://www.w3.org/2000/svg" viewBox="0 0 135.31 39.43"><defs><style>.cls-1{fill:#e31837;}.cls-2{fill:#b1b4b6;}.cls-3{fill:#fff;}</style></defs><title>Asset 1</title><g id="Layer_2" data-name="Layer 2"><g id="Layer_1-2" data-name="Layer 1"><path class="cls-1" d="M30.29,15h4.51l1.1-3.68,9.58-5.47,1-3.25H41.95l-.48,1.62-7,4L30,4.42l.54-1.79H26l-.92,3.11,6.37,5.51L30.29,15"/><path class="cls-1" d="M68.37,10l-1.51,5H87.34l1-3.27H72.78l6.85-2.88-5.35-3H90.08l1-3.27H70.58L69.12,7.52l2.2,1.26L68.37,10"/><polygon class="cls-1" points="8.2 2.63 3.72 2.63 0 15.03 4.49 15.03 8.2 2.63"/><path class="cls-1" d="M23.75,2.63h-4.1L18.28,7.19H8L7,10.47H17.3L15.93,15h4.51l3.72-12.4Z"/><path class="cls-1" d="M51.57,5.9H63l-.31,1L58.85,8.54h-6.9l-1,3.27h8.62l7.06-3,1.86-6.22H48L44.31,15h4.52Z"/><path class="cls-1" d="M90.72,10.88,89.48,15H94s.77-2.58.95-3.15c-1.36-.38-2.77-.71-4.22-1"/><path class="cls-1" d="M105.25,11.65,111.77,9l1.91-6.37H93.2l-2,6.51a48,48,0,0,1,14,2.51M96.73,5.9h11.44c-.14.48-.29,1-.34,1.15l-3.51,1.49H95.94c.17-.56.69-2.3.8-2.64"/><path class="cls-2" d="M133.73,39.43c-3.07-9.11-7.72-15.58-13-20.16,4.72-4.6,8-10.83,8.53-19.27,0,0-1.93,8.38-12.27,16.39C101.6,5.91,83.2,8.89,83.2,8.89A62.8,62.8,0,0,1,113.2,19c-9.69,6.16-25,11.47-49.25,11.65,0,0,34.64,5.22,53.51-8.65a68.55,68.55,0,0,1,16.27,17.39"/><path class="cls-3" d="M130.4,5a2.45,2.45,0,1,1,2.46,2.47A2.44,2.44,0,0,1,130.4,5m4.52,0a2.07,2.07,0,1,0-4.13,0,2.07,2.07,0,1,0,4.13,0m-.84,1.38h-.4l-.78-1.26h-.61V6.41h-.34V3.67h1.2c.72,0,1,.27,1,.73s-.37.73-.86.75ZM132.8,4.88c.39,0,1,.07,1-.49s-.35-.48-.69-.48h-.77v1Z"/></g></g></svg>